<?xml version="1.0" standalone="no"?><!DOCTYPE svg PUBLIC "-//W3C//DTD SVG 1.1//EN" "http://www.w3.org/Graphics/SVG/1.1/DTD/svg11.dtd"><svg t="1524373125232" class="icon" style="" viewBox="0 0 1024 1024" version="1.1" xmlns="http://www.w3.org/2000/svg" p-id="6369" xmlns:xlink="http://www.w3.org/1999/xlink" width="32" height="32"><defs><style type="text/css"></style></defs><path d="M498.773333 778.666667a290.133333 290.133333 0 1 1 289.706667-290.133334 290.133333 290.133333 0 0 1-289.706667 290.133334z m0-537.173334a247.466667 247.466667 0 1 0 247.04 247.04 247.466667 247.466667 0 0 0-247.04-247.04z" fill="#13227a" p-id="6370"></path><path d="M788.053333 807.253333a21.333333 21.333333 0 0 1-14.933333-6.4l-103.253333-103.253333a21.333333 21.333333 0 1 1 30.293333-30.293333l103.253333 103.253333a21.333333 21.333333 0 0 1-14.933333 36.266667zM341.333333 447.573333a21.333333 21.333333 0 0 1-20.053333-29.013333A193.28 193.28 0 0 1 426.666667 309.333333a21.333333 21.333333 0 0 1 15.786666 39.68 150.613333 150.613333 0 0 0-85.333333 85.333334 21.333333 21.333333 0 0 1-15.786667 13.226666z" fill="#13227a" p-id="6371"></path></svg>